<svg width="269" height="60" viewBox="0 0 269 60" fill="none" xmlns="http://www.w3.org/2000/svg">
<g clip-path="url(#clip0_235_3997)">
<path d="M25.5097 12.0001L31.5515 8.8001C31.5515 8.8001 31.9542 8.53343 31.6857 8.0001C31.4172 7.46676 28.1949 -0.399903 15.8429 9.65364e-05C3.49087 0.400097 7.69893e-05 9.73343 7.69893e-05 14.2668V27.2001C7.69893e-05 27.2001 -0.805491 41.8668 15.9772 42.8001C15.9772 42.8001 27.7921 43.7334 31.82 34.6668C31.82 34.6668 32.0885 34.2668 31.5515 33.8668L25.1069 30.6668C25.1069 30.6668 24.7041 30.4001 24.3014 30.9334C24.0328 31.6001 22.2874 35.3334 16.7827 35.3334C11.278 35.3334 8.32427 31.3334 8.32427 27.4668V15.2001C8.32427 15.2001 8.32427 7.33343 16.7827 7.33343C22.0189 7.33343 23.7643 10.6668 24.3014 11.8668C24.4356 12.0001 24.7041 12.6668 25.5097 12.0001Z" fill="#935227"/>
<path d="M51.422 0.133423C34.7737 0.133423 34.5051 14.8001 34.5051 15.6001V27.2001C34.5051 27.2001 34.2366 42.6668 51.2878 42.6668C67.9362 42.6668 68.0704 28.0001 68.0704 27.2001V15.6001C68.2047 15.6001 68.339 0.133423 51.422 0.133423ZM59.7462 27.6001C59.7462 30.8001 57.4638 35.4668 51.2878 35.4668C45.246 35.4668 42.8293 30.8001 42.8293 27.6001V15.3334C42.8293 13.2001 44.3062 7.46676 51.2878 7.46676C54.7786 7.46676 56.9268 8.93342 58.1351 10.6668C59.3435 12.4001 59.7462 14.2668 59.7462 15.4668V27.6001Z" fill="#935227"/>
<path d="M168.498 3.29637e-06C168.498 3.29637e-06 163.396 -0.13333 156.012 2.53334L154.938 2.93334C154.669 3.06667 154.535 3.33334 154.669 3.6L156.817 9.6C156.817 9.6 156.952 10.2667 157.757 9.86667C158.563 9.6 163.262 7.33334 168.632 7.33334C175.48 7.33334 176.822 11.6 176.822 16.6667C176.822 16.6667 172.929 13.4667 167.29 13.4667C159.368 13.4667 152.118 18.5333 152.118 28.1333C152.118 34.1333 155.609 42.8 167.424 42.8C167.424 42.8 172.929 43.0667 177.225 39.4667V41.4667C177.225 41.4667 177.225 41.8667 177.628 41.8667C178.031 41.8667 184.072 41.8667 184.072 41.8667C184.072 41.8667 184.475 41.8667 184.475 41.4667C184.475 41.0667 184.475 15.3333 184.475 15.3333C184.475 15.3333 184.341 3.29637e-06 168.498 3.29637e-06ZM168.23 35.7333C164.202 35.7333 160.308 32.9333 160.308 28.1333C160.308 24.6667 162.591 20.5333 168.23 20.5333C175.077 20.5333 176.688 25.4667 176.688 27.8667C176.688 31.3333 174.54 35.7333 168.23 35.7333Z" fill="#FFC400"/>
<path d="M224.753 15.6001V41.4667C224.753 41.7334 224.485 42.1334 224.082 42.1334H216.698C216.429 42.1334 216.026 41.8667 216.026 41.4667V15.3334C216.026 12.1334 213.744 7.46672 207.568 7.46672C201.392 7.46672 199.11 12.1334 199.11 15.3334V41.4667C199.11 41.7334 198.841 42.1334 198.438 42.1334H191.054C190.785 42.1334 190.383 41.8667 190.383 41.4667V1.33339C190.383 1.06672 190.651 0.666721 191.054 0.666721H197.901C198.17 0.666721 198.304 0.933387 198.304 1.33339V4.13339C202.6 -0.533279 209.582 -0.133279 209.582 -0.133279C218.577 0.133387 224.753 6.26672 224.753 15.6001Z" fill="#88CC2F"/>
<path d="M267.985 0.266667H267.046C265.434 0.266667 261.809 0.933333 258.99 3.86667C258.99 3.86667 255.096 0 246.906 0C237.508 0 230.124 5.6 230.124 14.8C230.124 18 231.198 23.6 236.434 27.2C236.434 27.2 230.392 30 230.392 37.7333V41.3333C230.392 41.6 230.661 42 231.064 42H255.365C258.453 42 260.333 44.4 260.333 46.8C260.333 46.8 260.735 50.4 255.768 53.2C255.768 53.2 255.365 53.4667 255.633 54C255.902 54.4 258.99 59.8667 258.99 59.8667C258.99 59.8667 259.258 60.2667 259.796 60C259.796 60 267.985 56.4 267.985 46.8C267.985 42.2667 264.897 34.9333 255.633 34.9333H238.851C238.851 34.9333 239.522 30 245.698 30H247.846C257.513 30 264.226 23.6 264.226 15.6C264.226 15.6 264.36 11.7333 262.884 8.53333C262.884 8.53333 265.166 6.93333 268.388 7.2C268.388 7.2 269.06 7.2 269.06 6.53333V0.4C268.522 0.666667 268.254 0.266667 267.985 0.266667ZM246.772 22.8C242.476 22.8 238.717 20 238.717 15.2C238.717 11.7333 241.133 7.6 246.772 7.6C253.754 7.6 255.365 12.5333 255.365 14.9333C255.633 18.5333 253.485 22.8 246.772 22.8Z" fill="#31B4DD"/>
<path d="M106.872 0.933415H99.4876C99.2191 0.933415 98.8163 1.20008 98.8163 1.60008V27.7334C98.8163 30.9334 96.5339 35.6001 90.3579 35.6001C84.3161 35.6001 81.8994 30.9334 81.8994 27.7334V1.33341C81.8994 1.06675 81.6309 0.666748 81.4966 0.666748H74.1123C73.8437 0.666748 73.7095 0.933415 73.7095 1.33341V27.2001C73.7095 36.5334 79.8855 42.6667 88.2097 42.6667C88.2097 42.6667 95.3255 43.0667 99.4876 38.4001V41.3334C99.4876 41.6001 99.7561 42.0001 100.159 42.0001H107.006C107.275 42.0001 107.409 41.7334 107.409 41.3334V1.33341C107.409 1.06675 107.141 0.933415 106.872 0.933415Z" fill="#935227"/>
<path d="M132.65 0.133423C127.414 0.133423 124.057 2.13342 121.775 4.40009V1.33342C121.775 1.06676 121.506 0.666756 121.372 0.666756H114.525C114.256 0.80009 114.122 1.06676 114.122 1.33342V58.5334C114.122 58.8001 114.391 58.9334 114.525 58.9334H121.909C122.178 58.9334 122.312 58.8001 122.312 58.5334C122.312 58.5334 122.446 48.5334 122.312 39.0668C124.594 41.2001 128.219 42.8001 132.784 42.8001C137.349 42.8001 140.974 41.2001 143.525 38.4001C146.076 35.6001 147.553 31.7334 147.553 27.3334V15.7334C147.553 7.33342 142.585 0.133423 132.65 0.133423ZM139.095 27.4668C139.095 30.6668 136.812 35.3334 130.636 35.3334C124.594 35.3334 122.178 30.6668 122.178 27.4668V15.2001C122.178 13.0668 123.655 7.33342 130.636 7.33342C134.127 7.33342 136.275 8.66676 137.484 10.5334C138.692 12.1334 139.095 14.1334 139.095 15.3334V27.4668Z" fill="#F7552F"/>
</g>
<defs>
<clipPath id="clip0_235_3997">
<rect width="268.657" height="60" fill="white"/>
</clipPath>
</defs>
</svg>
