<svg width="284" height="60" viewBox="0 0 284 60" fill="none" xmlns="http://www.w3.org/2000/svg">
<g clip-path="url(#clip0_235_3995)">
<path fill-rule="evenodd" clip-rule="evenodd" d="M66.8286 42.8567C72.6889 42.8567 75.3139 38.6048 75.3139 30.101V13.4971H81.7786V33.7442V44.3365C81.7786 56.4173 73.2933 59.9279 64.9433 59.9279C55.2492 59.9279 50.9806 51.8827 58.7492 46.0644C57.123 44.8788 55.9112 43.1221 55.1945 40.7423C53.3437 45.5712 50.1028 47.9827 46.289 47.9827C41.2376 47.9827 38.9493 44.6077 38.9493 38.2644V25.6442H38.9522V7.28942C38.9522 6.54808 38.9522 6.27692 38.6816 6.27692C38.4111 6.27692 38.2758 6.54519 38.0743 7.35577L27.1627 47.2442H15.9833L6.95978 15.1183C4.33477 5.7375 8.30683 0 15.7818 0C23.795 0 26.2876 4.85769 26.2876 9.04327C26.2876 11.1548 25.8617 13.3212 25.1478 15.3952C24.4686 17.3625 22.5343 21.1788 21.4521 22.8548L16.3201 20.1548C16.642 19.5768 16.9469 19.0615 17.2372 18.571C17.9175 17.4214 18.5172 16.4081 19.066 15.0433C19.6848 13.5087 19.9582 12.0058 19.9582 10.7308C19.9582 8.16635 18.6112 6.14135 16.4553 6.14135C13.695 6.14135 11.473 7.69327 13.4936 15.3173H13.4964L20.9052 42.8538H22.117L31.0052 8.57019C32.286 3.64327 34.7096 0 38.9522 0C43.1948 0 46.0904 2.3625 46.0904 7.0875V30.9115H46.0875V37.7913C46.0875 41.3019 47.0978 42.8538 48.7816 42.8538C52.6875 42.8538 54.4375 37.1856 54.4375 30.0981V13.4971H60.9022V33.5423C60.9022 40.8317 63.1242 42.8567 66.8286 42.8567ZM64.9433 54.799C69.5227 54.799 75.3139 53.1808 75.3139 42.9894V41.6856C73.0861 45.8913 69.5198 47.9856 65.4816 47.9856C63.8064 47.9856 62.2867 47.7433 60.9454 47.2413C57.9721 50.9625 59.6875 54.799 64.9433 54.799ZM124.254 12.4846C113.949 12.4846 107.62 19.774 107.62 30.3029H107.617C107.617 40.6298 113.477 48.1875 124.251 48.1875C133.142 48.1875 137.989 43.3933 139.808 36.8481H133.208C132.601 39.075 130.313 42.9231 124.386 42.9231C117.786 42.9231 114.352 37.7942 114.352 32.1923H140.145V29.6279C140.145 19.2346 134.558 12.4846 124.254 12.4846ZM114.355 26.9971C114.626 21.5307 118.664 17.7519 124.052 17.7519C129.843 17.7519 133.413 21.7326 133.413 26.9971H114.355ZM94.6417 19.9097H94.5093V13.5664H88.0447V47.2442H94.5093V29.899C94.5093 23.2847 98.752 18.8972 104.609 18.8972C105.415 18.8972 106.023 18.8972 106.696 19.2347V12.9577C105.755 12.8222 104.946 12.8222 103.599 12.8222C99.1549 12.8222 96.3918 15.7241 94.6417 19.9097ZM237.417 13.5663H243.882V47.2413H237.417V13.5663ZM268.057 12.4846C262.738 12.4846 259.572 15.1182 257.551 17.5471H257.485V13.5663H251.087V58.9846H257.485V43.0587H257.551C259.572 45.7587 262.738 48.1875 268.057 48.1875C276.542 48.1875 283.073 41.4375 283.073 30.3692C283.073 19.3009 276.542 12.4846 268.057 12.4846ZM266.978 42.8567C261.187 42.8567 257.551 37.9962 257.551 30.3721C257.551 22.748 261.187 17.8874 266.978 17.8874C273.238 17.8874 276.404 23.7576 276.404 30.3721C276.404 36.9865 273.241 42.8567 266.978 42.8567ZM0 47.2413H6.73525L11.2945 35.8038L5.74223 33.3606L0 47.2413ZM220.784 19.9097H220.919C222.804 15.7241 225.432 12.8222 230.009 12.8222C231.29 12.8222 232.029 12.8222 232.97 12.9577V19.2347C232.297 18.8972 231.759 18.8972 230.95 18.8972C225.023 18.8972 220.781 23.2847 220.781 29.8962H220.784V47.2413H214.385V13.5664H220.784V19.9097ZM202.4 37.9269V18.8278H208.865V13.5634H202.4V2.7663H196.001V13.5634H191.085V18.8278H196.001V37.7913C196.001 45.4183 199.438 47.6452 204.959 47.6452C206.306 47.6452 207.382 47.5788 209.066 47.2413V41.9769C208.82 42.0179 208.605 42.0562 208.408 42.0912C207.635 42.2282 207.15 42.3144 206.237 42.3144C203.474 42.3144 202.397 41.5038 202.397 37.9269H202.4ZM236.945 0.539458H244.285V7.55772H236.945V0.539458ZM172.589 39.6144V24.0922C172.589 15.3865 167.066 12.4846 160.063 12.4846C149.827 12.4846 145.585 17.5471 145.248 24.0259H151.779C152.116 19.5028 154.004 17.749 159.861 17.749C164.708 17.749 166.191 19.774 166.191 22.1365C166.191 25.4422 163.091 26.1173 157.772 27.0634C149.286 28.7509 143.562 30.9087 143.562 38.5356H143.564C143.564 44.2702 148.009 48.1846 154.608 48.1846C160.198 48.1846 164.104 45.9577 166.125 42.4471H166.26C166.732 46.3615 168.482 47.6452 171.648 47.6452C172.533 47.6452 173.465 47.4617 174.367 47.2843C174.562 47.246 174.755 47.2079 174.947 47.1721V43.1221C174.544 43.2577 174.342 43.2577 174.207 43.2577C172.926 43.2577 172.589 41.9769 172.589 39.6144ZM166.188 34.0817C166.188 39.9548 162.014 42.9231 156.088 42.9231C152.116 42.926 150.432 41.3048 150.432 38.0654C150.432 34.624 152.991 32.8673 158.782 31.7885C159.278 31.6618 159.764 31.5407 160.236 31.4233C163.033 30.7272 165.326 30.1566 166.191 29.2904V34.0817H166.188ZM180.177 0H186.641V47.2413H180.177V0Z" fill="#191919"/>
</g>
<defs>
<clipPath id="clip0_235_3995">
<rect width="283.226" height="60" fill="white"/>
</clipPath>
</defs>
</svg>
