<svg width="313" height="60" viewBox="0 0 313 60" fill="none" xmlns="http://www.w3.org/2000/svg">
<g clip-path="url(#clip0_235_3987)">
<path d="M89.9866 0L66.4607 60H86.4577L89.2989 52.0588H111.848L114.689 60H134.686L111.16 0H89.9866ZM93.8672 37.6471L100.573 18.9041L107.279 37.6471H93.8672Z" fill="#03CF5D"/>
<path d="M217.909 37.2059H245.257V22.7941H217.909V14.7059H245.551V0H198.794V60H246.14V45.2941H217.909V37.2059Z" fill="#03CF5D"/>
<path d="M158.506 39.452L144.39 0H124.393L147.919 60H169.092L192.618 0H172.621L158.506 39.452Z" fill="#03CF5D"/>
<path d="M40.8762 32.1127L18.5266 0H0V60H19.4088V27.8873L41.7584 60H60.2851V0H40.8762V32.1127Z" fill="#03CF5D"/>
<path d="M297.433 39.4166L299.252 38.6551C306.225 35.7364 309.77 29.4211 309.77 21.4062C309.77 13.8269 307.007 8.21994 301.555 4.74078C296.488 1.50636 289.916 0 280.874 0H255.55V60H274.37V43.2353H281.134L292.603 60H312.6L297.433 39.4166ZM284.369 27.9412H274.076V15.2941H284.369C287.861 15.2941 290.692 18.1253 290.692 21.6176C290.692 25.1101 287.861 27.9412 284.369 27.9412Z" fill="#03CF5D"/>
</g>
<defs>
<clipPath id="clip0_235_3987">
<rect width="312.6" height="60" fill="white"/>
</clipPath>
</defs>
</svg>
