<svg width="244" height="60" viewBox="0 0 244 60" fill="none" xmlns="http://www.w3.org/2000/svg">
<g clip-path="url(#clip0_236_4026)">
<mask id="mask0_236_4026" style="mask-type:luminance" maskUnits="userSpaceOnUse" x="-257" y="-533" width="745" height="1076">
<path d="M-256.642 -532.191H487.114V542.118H-256.642V-532.191Z" fill="white"/>
</mask>
<g mask="url(#mask0_236_4026)">
<path d="M181.171 29.9987C181.171 46.5694 167.741 59.9988 151.178 59.9988C134.609 59.9988 121.179 46.5694 121.179 29.9987C121.179 13.4353 134.609 7.79692e-05 151.178 7.79692e-05C167.741 7.79692e-05 181.171 13.4353 181.171 29.9987Z" fill="#FF5000"/>
<path d="M165.424 29.9987C165.424 37.8686 159.05 44.2517 151.179 44.2517C143.309 44.2517 136.926 37.8686 136.926 29.9987C136.926 22.1303 143.309 15.753 151.179 15.753C159.05 15.753 165.424 22.1303 165.424 29.9987Z" fill="white"/>
<path d="M158.674 29.9988C158.674 34.1458 155.317 37.4999 151.177 37.4999C147.033 37.4999 143.679 34.1458 143.679 29.9988C143.679 25.859 147.033 22.5006 151.177 22.5006C155.317 22.5006 158.674 25.859 158.674 29.9988Z" fill="black"/>
<path d="M122.298 53.5761L109.379 5.44419C109.151 4.61187 108.382 3.99237 107.476 3.99237C106.821 3.99237 106.237 4.31305 105.883 4.80865L88.9569 27.6808L88.2062 28.1443L87.457 27.6808L70.5379 4.80865C70.1764 4.31305 69.6006 3.99237 68.9432 3.99237C68.041 3.99237 67.2713 4.61187 67.041 5.44419L54.1218 53.5761L54.0605 54.0498C54.0605 55.1285 54.9468 56.0133 56.0313 56.0133H68.1474C69.0511 56.0133 69.8222 55.3967 70.0496 54.5673L74.3628 38.0433C74.4503 37.6891 74.9532 37.587 75.1674 37.8917L86.9672 54.3487C87.2893 54.7976 87.7383 55.0556 88.2062 55.0556C88.6756 55.0556 89.1304 54.7976 89.4525 54.3487L101.248 37.8917C101.468 37.587 101.964 37.6891 102.058 38.0433L106.364 54.5673C106.599 55.3967 107.363 56.0133 108.274 56.0133H120.383C121.467 56.0133 122.358 55.1285 122.358 54.0498L122.298 53.5761Z" fill="black"/>
<path d="M2.3486 3.99225C1.02213 3.99225 0.299129 4.52721 0.0440387 5.57235C-0.14983 6.42362 0.272891 7.46439 1.74513 8.46726C3.05848 9.3608 3.83541 10.8564 3.83541 13.6594V18.184C3.83541 19.2627 4.72604 20.1533 5.79742 20.1533H20.4862C21.5649 20.1533 22.4424 21.0439 22.4424 22.108V54.0497C22.4424 55.1298 23.3331 56.0132 24.4103 56.0132H37.2508C38.3353 56.0132 39.2259 55.1298 39.2259 54.0497V22.108C39.2259 21.0439 40.1034 20.1533 41.1821 20.1533H56.486C57.5705 20.1533 58.4553 19.2627 58.4553 18.184V5.96155C58.4553 4.87559 57.5705 3.99225 56.486 3.99225H2.3486Z" fill="black"/>
<path d="M240.667 56.0132C241.994 56.0132 242.717 55.4782 242.973 54.4331C243.167 53.5891 242.752 52.5367 241.271 51.5396C239.95 50.6417 239.186 49.1418 239.186 46.346V5.96154C239.186 4.87558 238.31 3.99225 237.22 3.99225H225.021C223.938 3.99225 223.053 4.87558 223.053 5.96154V29.1092C223.053 29.9255 222.301 30.1339 221.826 29.5377L202.711 5.5257C201.953 4.58842 200.784 3.99225 199.509 3.99225H187.286C186.208 3.99225 185.324 4.87558 185.324 5.96154V54.0497C185.324 55.1298 186.208 56.0132 187.286 56.0132H199.522C200.615 56.0132 201.507 55.1298 201.507 54.0497V30.8948C201.507 30.1004 202.182 29.7753 202.739 30.4546L221.811 54.4928C222.643 55.4972 223.623 56.0132 225.021 56.0132H240.667Z" fill="black"/>
</g>
</g>
<defs>
<clipPath id="clip0_236_4026">
<rect width="243.016" height="60" fill="white"/>
</clipPath>
</defs>
</svg>
