<svg width="564" height="60" viewBox="0 0 564 60" fill="none" xmlns="http://www.w3.org/2000/svg">
<g clip-path="url(#clip0_236_4007)">
<mask id="mask0_236_4007" style="mask-type:luminance" maskUnits="userSpaceOnUse" x="0" y="0" width="142" height="60">
<path d="M141.952 0H0V60H141.952V0Z" fill="white"/>
</mask>
<g mask="url(#mask0_236_4007)">
<path d="M134.789 27.5825C133.119 26.4628 131.269 25.6407 129.319 25.153C119.681 14.7838 107.494 7.12146 93.9717 2.92867C88.2677 1.12995 82.3383 0.143184 76.3582 -0.0012207C76.1352 -0.0012207 75.987 -0.00122065 75.9136 0.00384617C60.7131 0.02158 48.5464 7.73328 41.0158 14.2011C33.1002 21.0007 28.4717 21.6544 23.0527 22.4207C21.8544 22.5892 20.3648 22.7982 18.7941 23.0997C14.8077 23.8622 10.2451 25.0175 6.57542 27.8131C2.21289 31.1318 0.0012207 36.0416 0.0012207 42.4043C0.0012207 50.7873 4.45622 55.1701 8.193 57.3716C10.639 58.7853 13.351 59.6758 16.158 59.9874C16.2644 59.995 16.3544 60 16.4494 60H30.0247H30.1171C32.5201 60.0254 34.4885 58.0987 34.5139 55.6958C34.5392 53.2928 32.6125 51.3244 30.2096 51.2991C30.1285 51.294 30.05 51.2915 29.9689 51.2915L16.7015 51.2991C15.1573 51.1002 13.674 50.5682 12.3567 49.7385C9.93092 48.1741 8.70348 45.704 8.70348 42.4068C8.70348 38.9284 9.58764 36.566 11.4852 34.975C13.2294 33.5145 15.9022 32.5202 20.4243 31.6537C21.7404 31.4029 23.0502 31.2192 24.3181 31.0368C30.753 30.1273 36.8332 29.2698 46.6818 20.8082C55.773 13.0078 66.1688 8.71624 75.963 8.71624L76.324 8.71117C81.5289 8.86064 86.6882 9.74227 91.6486 11.3269C104.062 15.2322 115.197 22.4081 123.881 32.1009C124.603 32.8951 125.594 33.3929 126.663 33.4968C127.937 33.6767 129.146 34.1783 130.174 34.9535C132.214 36.4989 133.247 39.0082 133.247 42.4068C133.247 45.837 132.005 48.259 129.446 49.8056C128.893 50.1375 128.311 50.4187 127.707 50.6454C124.998 46.4539 119.09 39.6859 109.157 39.6859C98.4634 39.6859 91.8968 47.6877 89.4825 51.2915H65.8015L89.8815 33.4689C91.8132 32.035 92.2173 29.3053 90.7834 27.3735C89.9613 26.2664 88.6642 25.6141 87.286 25.6128L55.2916 25.6812C55.0611 25.6837 54.8318 25.7027 54.6038 25.7382C52.2287 26.1018 50.5972 28.3223 50.9607 30.6974C51.2863 32.8229 53.1167 34.3923 55.2675 34.3898C55.3119 34.3898 55.3549 34.3898 55.3866 34.3898L74.0528 34.3467L50.0095 52.1439C48.0777 53.5791 47.6762 56.3089 49.1114 58.2406C49.9322 59.3452 51.228 59.9975 52.6049 59.9988H91.9475C93.5917 60.0038 95.0953 59.0766 95.8312 57.606C95.8781 57.5135 100.718 48.3907 109.158 48.3907C117.502 48.3907 121.343 56.9904 121.5 57.3552C122.184 58.9601 123.76 60.0013 125.505 59.9988C125.586 59.9988 125.67 59.9937 125.753 59.9912L125.833 59.9861L125.908 59.9785C128.678 59.6593 131.352 58.7713 133.761 57.3704C137.498 55.1714 141.953 50.7886 141.953 42.403C141.953 34.1618 138.059 29.7955 134.789 27.5825Z" fill="url(#paint0_radial_236_4007)"/>
</g>
<path d="M208.384 47.7118C207.123 47.0829 205.731 46.7624 204.32 46.7716H180.774L171.713 59.166H204.314C205.752 59.1996 207.178 58.8943 208.475 58.2716C209.66 57.6854 210.252 56.3452 210.252 54.251V51.3477C210.42 49.8671 209.681 48.4354 208.384 47.7118Z" fill="black"/>
<path d="M205.407 3.02738C204.815 1.01556 202.95 0.00507722 199.82 0.00507722H161.617C160.216 -0.0437681 158.827 0.298152 157.606 0.991145C156.47 1.77267 155.851 3.11286 155.991 4.48358V6.67246C155.793 8.14697 156.36 9.62454 157.499 10.5862C158.748 11.3066 160.179 11.6486 161.617 11.5692H183.695L157.966 48.4382C157.343 49.3999 156.837 50.4317 156.458 51.5124C156.009 52.6542 155.884 53.8967 156.092 55.1056C156.25 56.2535 156.87 57.2853 157.804 57.9692C159.282 58.8911 161.019 59.3094 162.756 59.1598H169.427L204.21 9.47496C205.52 7.60052 205.96 5.24984 205.407 3.02738Z" fill="black"/>
<path d="M288.282 26.7753C287.311 23.9728 285.794 21.3901 283.813 19.1799C281.859 17.0215 279.484 15.2845 276.834 14.0756C273.955 12.7903 270.826 12.1492 267.673 12.1981C264.485 12.1401 261.323 12.7812 258.407 14.0756C255.776 15.2662 253.431 17.0063 251.529 19.1799C250.974 19.824 250.455 20.4987 249.978 21.2039C247.808 18.1022 244.843 15.6386 241.394 14.0756C238.515 12.7873 235.386 12.1492 232.232 12.1981C229.042 12.1401 225.879 12.7812 222.961 14.0756C220.332 15.2692 217.985 17.0063 216.083 19.1799C214.169 21.4115 212.703 23.9912 211.763 26.7753C209.751 32.8627 209.751 39.4385 211.763 45.5289C212.703 48.3161 214.172 50.8927 216.083 53.1243C217.979 55.2918 220.326 57.0136 222.961 58.1737C228.81 60.5854 235.371 60.6068 241.235 58.2317C243.912 57.093 246.312 55.3865 248.263 53.2281C248.873 52.5504 249.444 51.833 249.966 51.085C250.445 51.7963 250.967 52.4771 251.529 53.1213C253.422 55.2888 255.77 57.0136 258.407 58.1706C261.332 59.4284 264.488 60.0512 267.673 59.9932C270.765 60.0268 273.833 59.4253 276.684 58.2286C279.362 57.0869 281.761 55.3804 283.718 53.2251C285.69 51.0148 287.226 48.4535 288.246 45.6754C289.351 42.6195 289.9 39.3866 289.864 36.1384C289.891 32.9481 289.363 29.7793 288.3 26.7692M239.373 44.842C238.161 47.0705 235.819 48.4535 233.279 48.4321C230.883 48.4138 228.715 47.0156 227.708 44.842C226.282 42.1646 225.58 39.1607 225.675 36.1292C225.583 33.055 226.282 30.0083 227.708 27.2821C228.697 25.0871 230.871 23.6645 233.279 23.637C235.841 23.634 238.191 25.0596 239.373 27.334C240.918 30.0052 241.69 33.0489 241.607 36.1323C241.705 39.1881 240.93 42.2104 239.373 44.842ZM274.816 44.845C273.604 47.0767 271.263 48.4565 268.726 48.4352C266.329 48.4168 264.159 47.0186 263.154 44.845C261.729 42.1677 261.03 39.1637 261.124 36.1323C261.03 33.0581 261.729 30.0113 263.154 27.2852C264.143 25.0902 266.317 23.6675 268.726 23.6401C271.287 23.634 273.638 25.0597 274.816 27.3371C276.367 30.0052 277.142 33.0519 277.063 36.1353C277.158 39.1912 276.379 42.2165 274.816 44.845Z" fill="black"/>
<path d="M328.174 17.6077C326.901 15.9226 325.307 14.5061 323.481 13.4467C321.589 12.3264 319.424 11.7463 317.226 11.7738C315.675 11.7066 314.125 11.9173 312.647 12.3996C311.716 12.7476 310.867 13.2788 310.147 13.9627C309.57 13.5627 308.941 13.2483 308.272 13.0315C307.143 12.598 305.94 12.3844 304.731 12.4027H298.378C296.904 12.3263 295.469 12.8789 294.422 13.9169C293.405 15.0373 292.88 16.5148 292.959 18.026V54.1715C292.898 55.6613 293.381 57.1205 294.315 58.2837C295.35 59.4193 296.849 60.0146 298.378 59.8986H304.832C306.312 60.0116 307.778 59.5231 308.895 58.5431C309.909 57.322 310.397 55.7498 310.25 54.1715V32.9146C310.147 30.8631 310.449 28.8147 311.145 26.8822C311.606 25.6519 312.803 24.8552 314.115 24.904C315.166 25.0353 316.091 25.655 316.619 26.5709C317.605 28.311 318.038 30.3106 317.864 32.301V54.2753C317.733 55.8078 318.179 57.3312 319.116 58.5493C320.151 59.5262 321.549 60.0177 322.969 59.9047H326.925C329.499 60.2741 331.883 58.4882 332.252 55.9177C332.319 55.4445 332.316 54.9622 332.24 54.489V29.2696C332.225 27.2303 331.874 25.2062 331.202 23.283C330.509 21.2406 329.486 19.3204 328.174 17.6077Z" fill="black"/>
<path d="M351.082 18.2336C349.772 16.292 348.026 14.6862 345.981 13.5414C343.749 12.3141 341.237 11.6975 338.691 11.7555C337.576 11.7585 336.468 11.9356 335.406 12.2775C334.395 12.6011 333.406 12.9858 332.445 13.4254C331.636 13.7917 330.851 14.2099 330.094 14.677C329.441 15.0953 329.001 15.3731 328.8 15.5104C330.295 16.9666 331.434 18.7464 332.127 20.7155C333.034 23.0082 333.69 24.7758 334.102 26.0305C335.818 25.1971 337.851 25.3528 339.42 26.4396C340.8 28.0515 341.441 30.1671 341.194 32.2766V54.4615C340.996 56.0398 341.554 57.6212 342.699 58.7263C343.868 59.5445 345.282 59.9505 346.707 59.8742H349.837C351.311 60.0115 352.776 59.5445 353.897 58.5798C354.825 57.4166 355.271 55.9452 355.145 54.4615V33.3176C355.155 30.5639 354.822 27.8194 354.159 25.1452C353.552 22.6724 352.511 20.3278 351.079 18.2183" fill="black"/>
<path d="M413.958 3.02744C413.363 1.01257 411.507 0.00514083 408.387 0.00514083H370.168C368.761 -0.0467573 367.369 0.295163 366.148 0.991208C365.009 1.76968 364.386 3.10987 364.527 4.48365V6.67252C364.331 8.15009 364.905 9.6246 366.047 10.5862C367.293 11.3067 368.724 11.6486 370.159 11.5693H392.231L366.505 48.4352C365.879 49.3969 365.372 50.4287 364.991 51.5094C364.551 52.6542 364.426 53.8937 364.627 55.1026C364.789 56.2505 365.409 57.2854 366.349 57.9662C367.824 58.8881 369.561 59.3064 371.295 59.1568H377.962L412.743 9.46891C414.062 7.59448 414.498 5.24074 413.943 3.01828" fill="black"/>
<path d="M416.919 47.7119C415.659 47.083 414.27 46.7594 412.859 46.7716H389.313L380.255 59.1661H412.853C414.291 59.1996 415.72 58.8944 417.017 58.2716C418.205 57.6854 418.788 56.3452 418.788 54.251V51.3478C418.959 49.8641 418.217 48.4232 416.91 47.7027" fill="black"/>
<path d="M496.842 26.7754C495.862 23.9729 494.339 21.3902 492.355 19.1799C490.404 17.0216 488.029 15.2845 485.379 14.0756C482.497 12.7904 479.371 12.1492 476.217 12.1981C473.027 12.1431 469.864 12.7812 466.946 14.0756C464.317 15.2692 461.976 17.0094 460.074 19.1799C459.518 19.8241 459.003 20.4987 458.526 21.2009C456.359 18.0962 453.398 15.6356 449.948 14.0756C444.056 11.5753 437.398 11.5753 431.506 14.0756C428.877 15.2692 426.536 17.0094 424.634 19.1799C422.717 21.4085 421.248 23.9881 420.311 26.7754C418.296 32.8627 418.296 39.4385 420.311 45.5289C421.248 48.3161 422.717 50.8958 424.634 53.1243C426.527 55.2918 428.874 57.0136 431.506 58.1737C434.43 59.4345 437.59 60.0543 440.774 59.9963C443.867 60.0298 446.935 59.4284 449.786 58.2317C452.46 57.0899 454.857 55.3834 456.811 53.2281C457.421 52.5504 457.989 51.833 458.514 51.085C458.993 51.7933 459.515 52.4741 460.077 53.1213C461.97 55.2888 464.317 57.0106 466.949 58.1707C472.801 60.5824 479.365 60.6007 485.229 58.2287C487.907 57.0869 490.306 55.3804 492.26 53.2251C494.235 51.0179 495.771 48.4565 496.787 45.6754C497.896 42.6195 498.442 39.3866 498.402 36.1384C498.427 32.9482 497.899 29.7793 496.839 26.7692M447.918 44.842C446.706 47.0706 444.364 48.4535 441.824 48.4321C439.425 48.4169 437.248 47.0187 436.238 44.842C434.815 42.1616 434.116 39.1607 434.207 36.1292C434.116 33.055 434.815 30.0083 436.238 27.2821C437.233 25.0841 439.413 23.6615 441.824 23.637C444.386 23.6309 446.736 25.0566 447.918 27.334C449.462 30.0022 450.235 33.0489 450.152 36.1323C450.247 39.1882 449.472 42.2105 447.918 44.842ZM483.358 44.8451C482.146 47.0767 479.801 48.4566 477.261 48.4352C474.865 48.4199 472.694 47.0187 471.69 44.8451C470.264 42.1677 469.562 39.1637 469.654 36.1323C469.562 33.0581 470.264 30.0114 471.69 27.2852C472.679 25.0902 474.853 23.6676 477.261 23.6401C479.826 23.634 482.177 25.0597 483.358 27.3371C484.903 30.0083 485.675 33.052 485.593 36.1353C485.69 39.1912 484.915 42.2135 483.358 44.8451Z" fill="black"/>
<path d="M562.704 25.1636C562.106 22.6908 561.065 20.3432 559.636 18.2367C558.326 16.2951 556.577 14.6893 554.532 13.5445C552.303 12.3173 549.788 11.7006 547.245 11.7586C546.13 11.7617 545.022 11.9388 543.96 12.2807C542.949 12.6043 541.957 12.9889 540.989 13.4316C540.183 13.7979 539.402 14.2162 538.651 14.6802C537.979 15.0984 537.555 15.3762 537.347 15.5136C538.849 16.9668 539.991 18.7496 540.684 20.7187C541.579 23.0113 542.247 24.7789 542.662 26.0337C544.375 25.2002 546.408 25.3559 547.974 26.4427C549.351 28.0577 549.992 30.1733 549.745 32.2797V54.4647C549.55 56.046 550.108 57.6243 551.256 58.7295C552.428 59.5507 553.839 59.9536 555.268 59.8804H558.397C559.871 60.0147 561.337 59.5476 562.457 58.5829C563.388 57.4228 563.834 55.9483 563.709 54.4647V33.3208C563.721 30.5641 563.385 27.8196 562.713 25.1483" fill="black"/>
<path d="M536.728 17.6079C535.455 15.9227 533.861 14.5062 532.035 13.4469C530.143 12.3265 527.978 11.7464 525.78 11.7739C524.226 11.7037 522.676 11.9174 521.198 12.3997C520.267 12.7478 519.418 13.279 518.698 13.9628C518.121 13.5629 517.489 13.2484 516.82 13.0317C515.691 12.5951 514.488 12.3814 513.276 12.4028H506.938C505.464 12.3265 504.026 12.876 502.979 13.917C501.965 15.0374 501.437 16.515 501.516 18.0261V54.1716C501.455 55.6614 501.935 57.1207 502.869 58.2838C503.904 59.4194 505.403 60.0147 506.935 59.8987H513.392C514.872 60.0117 516.335 59.5232 517.449 58.5433C518.463 57.3252 518.951 55.7499 518.805 54.1716V32.9148C518.701 30.8633 519.006 28.8148 519.699 26.8824C520.157 25.6521 521.354 24.8553 522.663 24.9041C523.713 25.0354 524.642 25.6521 525.167 26.571C526.153 28.3111 526.589 30.3107 526.415 32.3011V54.2754C526.281 55.8079 526.73 57.3313 527.67 58.5494C528.702 59.5293 530.1 60.0208 531.516 59.9048H535.473C538.05 60.2712 540.434 58.4822 540.8 55.9056C540.867 55.4355 540.861 54.9562 540.788 54.4891V29.2697C540.77 27.2304 540.419 25.2064 539.747 23.2831C539.057 21.2377 538.037 19.3205 536.728 17.6048" fill="black"/>
</g>
<defs>
<radialGradient id="paint0_radial_236_4007" cx="0" cy="0" r="1" gradientUnits="userSpaceOnUse" gradientTransform="translate(145.536 -9.42224) scale(151.011 151.011)">
<stop offset="0.0635" stop-color="#5ED45E"/>
<stop offset="1" stop-color="#2EC0C0"/>
</radialGradient>
<clipPath id="clip0_236_4007">
<rect width="563.729" height="60" fill="white"/>
</clipPath>
</defs>
</svg>
